# xmcd CD database file
#
# Track frame offsets:
#	150
#	18043
#	37562
#	59037
#	83618
#	104979
#	129866
#	155304
#	175387
#	191782
#	208816
#	234180
#	260339
#	278286
#
# Disc length: 4068 seconds
#
# Revision: 2
# Processed by: cddbd v1.5.2PL0 Copyright (c) Steve Scherf et al.
# Submitted via: CDex 1.51
#
DISCID=af0fe20e
DTITLE=Francis Cabrel - L'In Extremis Tour - CD1
DYEAR=2016
DGENRE=Pop
TTITLE0=La Voix Du Crooner (Live)
TTITLE1=Assis Sur Le Rebord Du Monde (Live)
TTITLE2=La Fille Qui m'Accompagne (Live)
TTITLE3=Mandela, Pendant Ce Temps (Live)
TTITLE4=Partis Pour Rester (Live)
TTITLE5=Les Gens Absents (Live)
TTITLE6=C'est Ecrit (Live)
TTITLE7=Encore Et Encore (Live)
TTITLE8=Petite Sirène (Live)
TTITLE9=L'encre De Tes Yeux (Live)
TTITLE10=Cent Ans De Plus (Live)
TTITLE11=Dur Comme Fer (Live)
TTITLE12=Le Chêne Liège (Live)
TTITLE13=African Tour (Live)
EXTD=YEAR: 2016
EXTT0=
EXTT1=
EXTT2=
EXTT3=
EXTT4=
EXTT5=
EXTT6=
EXTT7=
EXTT8=
EXTT9=
EXTT10=
EXTT11=
EXTT12=
EXTT13=
PLAYORDER=
